<?xml version="1.0" standalone="yes"?>
<svg xmlns="http://www.w3.org/2000/svg" fill="none" width="1166" height="410">
<path style="fill:none; stroke:none;" d="M0 0L0 410L1166 410L1166 0L0 0z"/>
<path style="fill:#f7fafd; stroke:none;" d="M335 259C336.617 255.252 336.481 250.95 337.595 247C339.743 239.381 344.621 232.887 351.001 228.301C369.929 214.695 395.684 224.529 403.285 246C405.998 253.661 403.614 260.287 403 268C410.476 259.395 412.837 248.007 414.155 237C418.688 199.14 396.986 164.712 363 148.782C341.351 138.634 313.526 139.446 292 149.309C286.354 151.896 281.006 155.079 276 158.756C273.66 160.475 271 163.628 268 164.083C263.017 164.839 255.253 156.306 251 153.873C240.069 147.619 226.762 142.332 214 142.015C195.444 141.553 178.26 143.78 162 153.453C122.414 177.003 107.677 229.04 131 269C131.931 264.923 130.048 260.267 130.004 256C129.898 245.731 134.319 236.993 142.004 230.185C156.308 217.513 178.77 220 190.471 235.004C196.299 242.478 197.994 250.76 198 260C201.982 256.334 205.6 252.198 211 250.638C221.955 247.473 235.156 254.717 237.61 266C239.852 276.31 234.207 286.993 228.36 295C203.002 329.724 155.997 341.558 118 320.688C101.107 311.41 86.6951 295.113 76.436 279C60.5463 254.044 51.7398 223.679 53.0394 194C55.4042 139.993 90.9214 89.7181 140 67.8611C165.391 56.5534 192.511 52.7664 220 56.7292C242.661 59.9959 264.428 69.1552 283 82.4275C291.256 88.3275 297.788 96.2157 306 102C299.271 89.0116 285.547 78.2213 274 69.6296C223.967 32.4011 154.975 30.8699 102 62.4529C37.0178 101.195 10.9112 185.982 40.4275 255C70.2843 324.814 158.76 372.312 231 336.191C252.715 325.334 269.868 308.613 280.891 287C286.613 275.782 288.255 261.473 297.301 252.185C309.196 239.972 327.508 244.558 335 259M247 117C248.144 123.418 251.873 129.206 254.752 135C256.386 138.289 257.7 142.157 260.275 144.852C263.452 148.178 268.937 149.065 272.787 146.258C278.427 142.145 281.835 131.195 284.738 125C285.646 123.061 287.941 118.809 285.381 117.136C283.402 115.842 280.661 117.715 279 118.711C275.06 121.076 269.965 126.62 265 124.73C258.429 122.229 254.656 115.69 247 117M843 129C843 131.681 842.242 136.012 844.028 138.262C845.966 140.703 850.326 140.404 852.982 141.653C858.085 144.053 858.933 148.877 858.996 154C859.189 169.661 859 185.337 859 201C859 211.529 859.693 222.602 857.772 232.999C856.25 241.234 849.3 238.696 844.603 242.938C842.14 245.163 843 250.024 843 253L893 253C905.371 253 919.639 253.126 931 247.481C948.962 238.557 955.604 213.454 943.779 197.039C938.72 190.016 931.557 187.367 924 184C940.798 176.053 952.466 153.544 936.815 138.301C934.012 135.572 930.568 133.446 927 131.877C911.751 125.169 895.96 127.818 880 128.91C867.775 129.748 855.254 129 843 129M592 129C592 131.976 591.14 136.837 593.603 139.062C597.154 142.268 605.982 140.161 605.806 147.019C605.651 153.074 602.084 160.174 600.421 166C596.605 179.369 592.479 192.655 588.576 206C586.564 212.876 583.625 219.838 583 227L581 227C580.402 220.143 577.735 213.589 575.86 207C572.341 194.641 568.752 182.282 564.975 170C562.822 162.995 558.799 154.372 558.613 147.019C558.461 141.041 565.097 141.95 568.397 138.914C570.668 136.825 569.998 132.777 570 130L518 130C518.002 132.643 517.472 136.193 519.028 138.505C520.828 141.182 524.36 142.365 526.351 145.044C530.272 150.319 534.508 162.387 534.296 169C534.127 174.256 530.768 180.124 528.95 185C523.696 199.092 515.549 214.187 513 229C505.001 210.931 500.84 190.007 495.421 171C493.367 163.795 488.159 153.627 488.782 146.108C489.187 141.215 495.605 141.904 498.397 139.157C500.646 136.943 499.998 132.865 500 130L445 130C445 132.713 444.257 136.98 446.028 139.273C447.595 141.303 450.884 141.684 452.985 143.005C457.051 145.564 459.172 149.537 460.564 154C468.245 178.625 475.84 203.301 483.28 228C485.188 234.334 487.059 240.683 489.025 247C489.796 249.475 490.475 253.338 492.702 254.968C494.764 256.478 497.707 255.562 500 255.285C506.335 254.518 512.72 254.166 519 253C520.915 238.793 528.485 225.18 533.799 212C536.332 205.718 538.142 197.848 543 193C545.329 208.772 552.245 224.777 556.974 240C558.195 243.927 559.178 253.526 563.419 255.357C565.624 256.309 568.723 255.305 571 255.05C576.996 254.379 582.989 253.474 589 253C594.897 224.413 607.444 196.667 616.667 169C619.331 161.007 621.137 148.205 628.185 142.854C631.284 140.501 635.28 139.77 639 139L639 129L592 129z"/>
<path style="fill:none; stroke:none;" d="M887 182C892.767 181.952 903.883 182.756 908.895 179.972C912.178 178.149 913.4 174.368 914.409 171C917.274 161.439 915.764 149.162 906.96 143.109C903.122 140.47 893.698 136.512 889.603 140.603C887.215 142.99 887.982 147.908 887.576 151C886.24 161.169 887 171.751 887 182z"/>
<path style="fill:#f7fafd; stroke:none;" d="M1070 175L1080 175C1080 191.724 1079 208.289 1079 225C1079 233.169 1078.64 241.702 1085.1 247.787C1095.09 257.183 1111.59 254.587 1123 249.664C1127.45 247.743 1135.83 244.573 1136.47 238.987C1136.73 236.721 1135.57 234.158 1135 232C1128.73 233.791 1119.69 239.245 1113 237.167C1106.73 235.219 1104.52 227.828 1104.09 222C1102.96 206.587 1105.68 190.444 1106 175C1114.6 175.071 1123.48 175.923 1132 177C1133.14 175.072 1134.55 173.133 1135.28 170.995C1140.47 155.754 1114.46 161.61 1107 163L1108 141C1097.11 141.129 1089.39 151.547 1081 157.572C1077.57 160.033 1072.12 162.346 1070.04 166.184C1068.61 168.837 1069.65 172.191 1070 175M735 176L745 176C745 192.383 744 208.611 744 225C744 233.448 743.389 242.467 750.105 248.787C760.451 258.523 778.402 255.29 790 249.738C793.829 247.904 799.986 245.453 801.292 240.96C802.034 238.41 800.645 235.446 800 233C793.629 234.821 784.833 240.313 778.001 238.168C771.731 236.2 769.519 228.842 769.09 223C767.957 207.559 770.681 191.463 771 176C776.644 176.242 782.356 176.705 788 177.09C790.431 177.255 793.329 178.262 795.699 177.357C800.713 175.442 803.481 165.409 797.772 162.742C791.143 159.646 778.799 162.377 772 164L773 142C761.834 142.132 753.683 153.173 745 159.279C741.923 161.443 736.846 163.608 735.198 167.184C734.046 169.683 734.947 173.321 735 176M1019 199C1013.47 199.745 1008.28 201.575 1003 203.333C990.681 207.44 975.851 211.927 970.363 225C966.2 234.919 971.042 247.607 981 251.772C985.79 253.775 992.921 253.522 998 252.79C1007.01 251.491 1014.03 245.252 1021 240C1024.09 250.484 1033.36 255.45 1044 253.535C1052.23 252.053 1061.14 247.388 1058 238C1055.01 238.44 1051.01 240.252 1048.11 238.879C1041.07 235.553 1044 219.325 1044 213C1044.01 196.443 1051.31 168.476 1031 160.559C1028.17 159.456 1025.02 158.547 1022 158.184C1007.35 156.425 989.056 160.512 978.44 171.301C973.594 176.226 968.095 187.38 974.434 193.486C979.391 198.262 993.178 195.888 995.303 188.956C997.02 183.357 990.601 178.344 996.152 173.43C1005.34 165.296 1017.93 176.198 1018.9 186C1019.32 190.275 1019 194.706 1019 199M662 201L717 201C717.82 194.515 719.061 187.402 717.096 181C711.033 161.25 687.192 154.538 669 161.468C654.858 166.854 644.32 179.654 640.042 194C633.359 216.417 641.648 251.497 669 254.816C682.799 256.49 695.883 253.05 707 244.844C710.246 242.448 716.179 238.633 716.052 234.005C715.98 231.331 713.669 228.861 710.96 228.955C707.908 229.062 704.819 231.429 702 232.456C696.253 234.549 690.117 235.627 684 234.812C667.905 232.667 662.038 214.899 662 201z"/>
<path style="fill:none; stroke:none;" d="M663 193C667.75 192.999 672.284 192.465 677 192.086C680.863 191.775 689.17 192.473 692.258 189.972C697.003 186.13 692.217 176.701 688.671 173.854C680.024 166.912 669.601 173.418 665.67 182C664.022 185.598 663.18 189.068 663 193M887 193L886 241C893.814 241 904.2 242.85 910.96 238.146C922.49 230.122 923.513 208.431 912.907 199.39C905.866 193.39 895.741 193 887 193M1018 208C1012.79 210.311 1006.99 211.573 1002.01 214.414C999.981 215.575 998.188 217.07 996.893 219.043C993.055 224.896 994.68 234.226 1001.04 237.542C1006.2 240.231 1016.08 237.557 1018.4 231.895C1019.8 228.464 1019 223.636 1019 220C1019 216.017 1019.55 211.699 1018 208z"/>
<path style="fill:#f7fafd; stroke:none;" d="M453 279L453 286L476 286L476 345L483 345L483 286L506 286L506 279L453 279M515 345L523 345L523 324C528.948 324 539.714 321.926 544.7 325.603C550.941 330.207 552.826 339.922 559.465 343.972C561.901 345.458 565.272 344.998 568 345C563.541 336.999 556.934 330.278 553 322C567.503 317.368 571.27 296.926 560.671 286.329C552.216 277.874 537.94 279 527 279C523.811 279 517.339 277.791 515.603 281.318C513.298 286.002 515 294.851 515 300L515 345M604 279C597.384 301.975 581.576 321.998 575 345C577.327 344.992 580.343 345.394 582.362 343.972C589.382 339.029 585.976 328.213 597.001 328.005C603.329 327.885 609.671 327.997 616 328C618.797 328.001 622.27 327.542 624.787 329.028C630.202 332.224 629.233 340.666 634.39 343.972C636.549 345.356 639.561 344.991 642 345C635.079 328.13 627.184 311.423 619.258 295C615.276 286.747 614.372 279.037 604 279M635 279C641.287 301.989 656.457 322.114 663 345C673.432 344.963 674.699 337.564 678.424 329C685.526 312.674 695.107 296.117 700 279C690.521 279.034 689.615 285.139 686.14 293C680.085 306.694 672.117 320.598 668 335C660.99 321.85 655.819 307.586 649.694 294C646.035 285.881 644.917 279.035 635 279M709 345L756 345L756 338L717 338L717 315L750 315L750 308L717 308L717 286L754 286L754 279L723 279C719.672 279 713.385 277.825 710.603 280.028C707.171 282.746 709 293.062 709 297L709 345M768 279L768 345L812 345L812 338L776 338L776 279L768 279z"/>
<path style="fill:none; stroke:none;" d="M523 286L523 318C532.016 318 543.972 320.014 551.985 314.995C561.711 308.901 561.227 293.598 550.996 288.303C542.996 284.163 531.705 286 523 286M607 289C603.818 300.049 596.665 309.782 594 321L623 321C620.238 313.88 616.948 306.983 613.86 300C612.067 295.944 610.814 291.498 607 289z"/>
</svg>
